<svg width="91" height="24" viewBox="0 0 91 24" fill="none" xmlns="http://www.w3.org/2000/svg">
<path d="M70.2205 6.50098H65.3634C65.0777 6.50098 64.792 6.78669 64.6491 7.0724L62.6491 19.6438C62.6491 19.9295 62.792 20.0723 63.0777 20.0723H65.6491C65.9348 20.0723 66.0777 19.9295 66.0777 19.6438L66.6491 16.0724C66.6491 15.7867 66.9348 15.5009 67.3634 15.5009H68.9348C72.2205 15.5009 74.0776 13.9295 74.5062 10.7867C74.7919 9.50096 74.5062 8.35811 73.9348 7.64383C73.0776 6.92955 71.7919 6.50098 70.2205 6.50098ZM70.7919 11.2152C70.5062 12.9295 69.2205 12.9295 67.9348 12.9295H67.0777L67.6491 9.64382C67.6491 9.50096 67.7919 9.35811 68.0777 9.35811H68.3634C69.2205 9.35811 70.0776 9.35811 70.5062 9.92953C70.7919 10.0724 70.7919 10.501 70.7919 11.2152Z" fill="#139AD6"/>
<path d="M35.2214 6.50098H30.3642C30.0785 6.50098 29.7928 6.78669 29.65 7.0724L27.65 19.6438C27.65 19.9295 27.7928 20.0723 28.0785 20.0723H30.3642C30.65 20.0723 30.9357 19.7866 31.0785 19.5009L31.6499 16.0724C31.6499 15.7867 31.9357 15.5009 32.3642 15.5009H33.9357C37.2214 15.5009 39.0785 13.9295 39.5071 10.7867C39.7928 9.50096 39.5071 8.35811 38.9356 7.64383C38.0785 6.92955 36.9356 6.50098 35.2214 6.50098ZM35.7928 11.2152C35.5071 12.9295 34.2214 12.9295 32.9357 12.9295H32.2214L32.7928 9.64382C32.7928 9.50096 32.9357 9.35811 33.2214 9.35811H33.5071C34.3642 9.35811 35.2214 9.35811 35.6499 9.92953C35.7928 10.0724 35.9356 10.501 35.7928 11.2152ZM49.9356 11.0724H47.6499C47.507 11.0724 47.2213 11.2152 47.2213 11.3581L47.0785 12.0724L46.9356 11.7867C46.3642 11.0724 45.3642 10.7867 44.2213 10.7867C41.6499 10.7867 39.3642 12.7867 38.9356 15.5009C38.6499 16.9295 39.0785 18.2152 39.7928 19.0724C40.5071 19.9295 41.507 20.2152 42.7928 20.2152C44.9356 20.2152 46.0785 18.9295 46.0785 18.9295L45.9356 19.6438C45.9356 19.9295 46.0785 20.0723 46.3642 20.0723H48.507C48.7927 20.0723 49.0784 19.7866 49.2213 19.5009L50.507 11.501C50.3642 11.3581 50.0784 11.0724 49.9356 11.0724ZM46.6499 15.6438C46.3642 16.9295 45.3642 17.9295 43.9356 17.9295C43.2213 17.9295 42.6499 17.6438 42.3642 17.3581C42.0785 16.9295 41.9356 16.3581 41.9356 15.6438C42.0785 14.3581 43.2213 13.3581 44.507 13.3581C45.2213 13.3581 45.6499 13.6438 46.0785 13.9295C46.507 14.3581 46.6499 15.0724 46.6499 15.6438Z" fill="#263B80"/>
<path d="M84.7925 11.0699H82.5067C82.3639 11.0699 82.0782 11.2127 82.0782 11.3556L81.9353 12.0699L81.7925 11.7842C81.221 11.0699 80.221 10.7842 79.0782 10.7842C76.5068 10.7842 74.2211 12.7842 73.7925 15.4984C73.5068 16.927 73.9354 18.2127 74.6496 19.0699C75.3639 19.927 76.3639 20.2127 77.6496 20.2127C79.7925 20.2127 80.9353 18.927 80.9353 18.927L80.7925 19.6413C80.7925 19.927 80.9353 20.0699 81.221 20.0699H83.3639C83.6496 20.0699 83.9353 19.7841 84.0782 19.4984L85.3639 11.4985C85.221 11.3556 85.0782 11.0699 84.7925 11.0699ZM81.5067 15.6413C81.221 16.927 80.221 17.927 78.7925 17.927C78.0782 17.927 77.5068 17.6413 77.2211 17.3556C76.9353 16.927 76.7925 16.3556 76.7925 15.6413C76.9353 14.3556 78.0782 13.3556 79.3639 13.3556C80.0782 13.3556 80.5068 13.6413 80.9353 13.927C81.5068 14.3556 81.6496 15.0699 81.5067 15.6413Z" fill="#139AD6"/>
<path d="M62.3639 11.0723H59.9353C59.6496 11.0723 59.5068 11.2151 59.3639 11.358L56.2211 16.2151L54.7925 11.6437C54.6497 11.358 54.5068 11.2151 54.0782 11.2151H51.7925C51.5068 11.2151 51.364 11.5008 51.364 11.7865L53.9354 19.3579L51.5068 22.7865C51.364 23.0722 51.5068 23.5008 51.7925 23.5008H54.0782C54.3639 23.5008 54.5068 23.3579 54.6497 23.2151L62.5068 11.9294C62.9353 11.5008 62.6496 11.0723 62.3639 11.0723Z" fill="#263B80"/>
<path d="M87.5073 6.93062L85.5073 19.7877C85.5073 20.0734 85.6501 20.2163 85.9358 20.2163H87.9358C88.2215 20.2163 88.5072 19.9306 88.6501 19.6449L90.6501 7.07348C90.6501 6.78777 90.5072 6.64491 90.2215 6.64491H87.9358C87.793 6.50205 87.6501 6.64491 87.5073 6.93062Z" fill="#139AD6"/>
<path d="M17.0785 2.21428C16.0785 1.07143 14.2213 0.5 11.6499 0.5H4.50709C4.07852 0.5 3.64995 0.92857 3.50709 1.35714L0.649963 20.0713C0.649963 20.4999 0.935676 20.7856 1.22139 20.7856H5.64994L6.7928 13.7857V14.0714C6.93565 13.6428 7.36422 13.2142 7.79279 13.2142H9.93564C14.0785 13.2142 17.2213 11.5 18.2213 6.78569V6.35712C18.0785 6.35712 18.0785 6.35712 18.2213 6.35712C18.3642 4.49998 18.0785 3.35713 17.0785 2.21428Z" fill="#263B80"/>
<path d="M18.0779 6.35547V6.78404C17.0779 11.6412 13.9351 13.2126 9.79223 13.2126H7.64939C7.22082 13.2126 6.79225 13.6412 6.64939 14.0697L5.22083 22.784C5.22083 23.0697 5.36368 23.3554 5.79225 23.3554H9.50652C9.93509 23.3554 10.3637 23.0697 10.3637 22.6411V22.4983L11.0779 18.0697V17.784C11.0779 17.3554 11.5065 17.0697 11.9351 17.0697H12.5065C16.0779 17.0697 18.9351 15.6411 19.6493 11.3554C19.935 9.64117 19.7922 8.06975 18.9351 7.06975C18.7922 6.78404 18.5065 6.49833 18.0779 6.35547Z" fill="#139AD6"/>
<path d="M17.0786 5.92857C16.9358 5.92857 16.7929 5.78571 16.6501 5.78571C16.5072 5.78571 16.3644 5.78571 16.2215 5.64286C15.6501 5.5 15.0786 5.5 14.3644 5.5H8.79296C8.6501 5.5 8.50725 5.5 8.36439 5.64286C8.07868 5.78571 7.93582 6.07143 7.93582 6.35714L6.79297 13.7857V14.0714C6.93583 13.6428 7.36439 13.2143 7.79296 13.2143H9.93581C14.0787 13.2143 17.2215 11.5 18.2215 6.78571C18.2215 6.64285 18.2215 6.5 18.3643 6.35714C18.0786 6.21428 17.9358 6.07143 17.6501 6.07143C17.2215 5.92857 17.2215 5.92857 17.0786 5.92857Z" fill="#232C65"/>
</svg>
