<svg width="22" height="23" viewBox="0 0 22 23" fill="none" xmlns="http://www.w3.org/2000/svg">
<path fill-rule="evenodd" clip-rule="evenodd" d="M13.028 7.61554C13.028 10.039 11.0448 11.9811 8.5702 11.9811C6.09645 11.9811 4.11243 10.039 4.11243 7.61554C4.11243 5.1921 6.09645 3.25 8.5702 3.25C11.0448 3.25 13.028 5.1921 13.028 7.61554ZM1.83331 16.9243C1.83331 14.6809 4.93671 14.1196 8.5702 14.1196C12.2234 14.1196 15.3071 14.7002 15.3071 16.9453C15.3071 19.1887 12.2037 19.75 8.5702 19.75C4.91698 19.75 1.83331 19.1694 1.83331 16.9243ZM14.8256 7.69469C14.8256 8.92881 14.4471 10.0804 13.7834 11.0369C13.7143 11.1353 13.7753 11.2679 13.8955 11.289C14.0623 11.3162 14.2336 11.3329 14.4085 11.3364C16.1486 11.3812 17.7102 10.2841 18.1416 8.63192C18.7811 6.18036 16.9047 3.97914 14.5144 3.97914C14.2552 3.97914 14.0067 4.00549 13.7645 4.0538C13.7314 4.06083 13.6955 4.07664 13.6775 4.10475C13.6542 4.14076 13.6713 4.18732 13.6946 4.21806C14.413 5.20448 14.8256 6.40523 14.8256 7.69469ZM17.7075 13.0604C18.8771 13.2844 19.6458 13.7403 19.9642 14.4052C20.2341 14.9498 20.2341 15.5823 19.9642 16.1269C19.4771 17.1563 17.9057 17.4875 17.2949 17.5727C17.1684 17.5902 17.0671 17.4848 17.0805 17.3601C17.3926 14.5071 14.9108 13.1544 14.2686 12.8435C14.2417 12.8285 14.2354 12.8075 14.2381 12.7934C14.2399 12.7846 14.2516 12.7706 14.2722 12.7679C15.6616 12.7416 17.1559 12.9287 17.7075 13.0604Z" fill="#49B51F"/>
</svg>
