<svg width="28" height="28" viewBox="0 0 28 28" fill="none" xmlns="http://www.w3.org/2000/svg">
<path d="M22.6187 1.60352V5.50352M22.6187 5.50352V9.40351M22.6187 5.50352H26.5187M22.6187 5.50352H18.7188" stroke="#49B51F" stroke-width="2" stroke-linecap="round" stroke-linejoin="round"/>
<path fill-rule="evenodd" clip-rule="evenodd" d="M14.8188 1.60352H4.4188C3.38445 1.60352 2.39247 2.01441 1.66108 2.7458C0.929691 3.47719 0.518799 4.46917 0.518799 5.50352V19.1535C0.518799 19.2653 0.533099 19.3745 0.560399 19.4785C0.532881 19.5847 0.518903 19.6939 0.518799 19.8035V23.7035C0.518799 24.7379 0.929691 25.7298 1.66108 26.4612C2.39247 27.1926 3.38445 27.6035 4.4188 27.6035H22.6188C23.6531 27.6035 24.6451 27.1926 25.3765 26.4612C26.1079 25.7298 26.5188 24.7379 26.5188 23.7035V14.6035C26.5187 14.4939 26.5047 14.3847 26.4772 14.2785C26.5047 14.1724 26.5187 14.0632 26.5188 13.9535V13.3035H23.9188V13.3243C18.3327 13.505 14.2988 14.8505 11.4648 16.7342C12.5386 17.1151 13.7398 17.6572 14.9176 18.367C16.7363 19.459 18.5849 20.993 19.829 23.0249C19.9181 23.1705 19.9777 23.3323 20.0043 23.5009C20.0309 23.6696 20.024 23.8418 19.9841 24.0078C19.9441 24.1738 19.8718 24.3303 19.7714 24.4683C19.671 24.6064 19.5443 24.7233 19.3987 24.8124C19.2531 24.9015 19.0913 24.9611 18.9227 24.9877C18.754 25.0143 18.5818 25.0074 18.4158 24.9675C18.2498 24.9275 18.0934 24.8553 17.9553 24.7548C17.8172 24.6544 17.7003 24.5277 17.6112 24.3821C16.6544 22.8182 15.1698 21.5507 13.5786 20.5952C11.99 19.641 10.3741 19.0456 9.2535 18.7856C7.67493 18.4251 6.05858 18.2566 4.4396 18.2838H4.411C3.9586 18.2903 3.527 18.3098 3.1188 18.3423V5.50352C3.1188 5.15873 3.25576 4.82807 3.49956 4.58428C3.74336 4.34048 4.07402 4.20352 4.4188 4.20352H14.8188V1.60352ZM8.9688 6.80352C8.26009 6.80881 7.56985 7.03012 6.9902 7.43792C6.2492 7.97092 5.7188 8.84972 5.7188 10.0535C5.7188 11.2573 6.2492 12.1348 6.9902 12.6678C7.56948 13.0765 8.25987 13.2983 8.9688 13.3035C9.5018 13.3035 10.2727 13.154 10.9474 12.6678C11.6884 12.1348 12.2188 11.2573 12.2188 10.0535C12.2188 8.84972 11.6884 7.97222 10.9474 7.43792C10.368 7.02967 9.67759 6.80832 8.9688 6.80352Z" fill="#49B51F"/>
</svg>
