<svg width="26" height="26" viewBox="0 0 26 26" fill="none" xmlns="http://www.w3.org/2000/svg">
<path d="M22.426 11.7793C23.1804 11.7793 23.4953 10.8101 22.8826 10.3633L13.5588 3.58105C13.4257 3.4835 13.2649 3.43091 13.0998 3.43091C12.9348 3.43091 12.774 3.4835 12.6409 3.58105L3.31713 10.3633C2.70433 10.8076 3.01928 11.7793 3.77611 11.7793H5.28734V20.9102H3.52953C3.42211 20.9102 3.33422 20.998 3.33422 21.1055V22.375C3.33422 22.4824 3.42211 22.5703 3.52953 22.5703H22.6702C22.7776 22.5703 22.8655 22.4824 22.8655 22.375V21.1055C22.8655 20.998 22.7776 20.9102 22.6702 20.9102H20.9123V11.7793H22.426ZM13.0998 5.30225L19.7185 10.1167H6.48119L13.0998 5.30225ZM7.04515 11.7793H9.9016V20.9102H7.04515V11.7793ZM11.6594 11.7793H14.5159V20.9102H11.6594V11.7793ZM19.1545 20.9102H16.2737V11.7793H19.1545V20.9102Z" fill="black" fill-opacity="0.5"/>
</svg>
