<svg width="19" height="20" viewBox="0 0 19 20" fill="none" xmlns="http://www.w3.org/2000/svg">
<path fill-rule="evenodd" clip-rule="evenodd" d="M14.4303 5C14.4621 4.92913 14.477 4.85189 14.4739 4.77432H14.5C14.3882 2.10591 12.1849 0 9.50494 0C6.825 0 4.62172 2.10591 4.50989 4.77432C4.4967 4.84898 4.4967 4.92535 4.50989 5H4.43171C3.15022 5 1.78034 5.84597 1.38264 8.12007L0.604905 14.3147C-0.0314237 18.8629 2.31062 20 5.36853 20H13.6585C16.7075 20 18.9789 18.3535 18.4133 14.3147L17.6444 8.12007C17.176 5.90964 15.8503 5 14.5865 5H14.4303ZM12.9932 5C12.9654 4.92794 12.9506 4.85153 12.9497 4.77432C12.9497 2.85682 11.3899 1.30238 9.46575 1.30238C7.54164 1.30238 5.98184 2.85682 5.98184 4.77432C5.99502 4.84898 5.99502 4.92535 5.98184 5H12.9932ZM6.597 10.1486C6.10889 10.1486 5.71321 9.74131 5.71321 9.23893C5.71321 8.73655 6.10889 8.32929 6.597 8.32929C7.0851 8.32929 7.48079 8.73655 7.48079 9.23893C7.48079 9.74131 7.0851 10.1486 6.597 10.1486ZM11.502 9.23893C11.502 9.74131 11.8977 10.1486 12.3858 10.1486C12.8739 10.1486 13.2696 9.74131 13.2696 9.23893C13.2696 8.73655 12.8739 8.32929 12.3858 8.32929C11.8977 8.32929 11.502 8.73655 11.502 9.23893Z" fill="#979797"/>
</svg>
