<svg width="32" height="32" viewBox="0 0 32 32" fill="none" xmlns="http://www.w3.org/2000/svg">
<path fill-rule="evenodd" clip-rule="evenodd" d="M11.9011 21.8533H19.0826C19.6238 21.8533 20.0727 21.4 20.0727 20.8533C20.0727 20.3066 19.6238 19.8666 19.0826 19.8666H11.9011C11.3598 19.8666 10.911 20.3066 10.911 20.8533C10.911 21.4 11.3598 21.8533 11.9011 21.8533ZM16.3631 13.2H11.9011C11.3598 13.2 10.911 13.6533 10.911 14.2C10.911 14.7466 11.3598 15.1866 11.9011 15.1866H16.3631C16.9044 15.1866 17.3532 14.7466 17.3532 14.2C17.3532 13.6533 16.9044 13.2 16.3631 13.2ZM25.7842 12.0341C26.0945 12.0305 26.4324 12.0266 26.7394 12.0266C27.0694 12.0266 27.3334 12.2933 27.3334 12.6266V23.3466C27.3334 26.6533 24.68 29.3333 21.406 29.3333H10.8978C7.46543 29.3333 4.66675 26.52 4.66675 23.0533V8.67996C4.66675 5.37329 7.33341 2.66663 10.6205 2.66663H17.67C18.0133 2.66663 18.2773 2.94663 18.2773 3.27996V7.57329C18.2773 10.0133 20.2707 12.0133 22.6866 12.0266C23.2508 12.0266 23.7483 12.0308 24.1837 12.0345C24.5224 12.0374 24.8235 12.04 25.0892 12.04C25.2771 12.04 25.5207 12.0371 25.7842 12.0341ZM26.1482 10.088C25.0631 10.092 23.7838 10.088 22.8637 10.0786C21.4036 10.0786 20.201 8.86396 20.201 7.38929V3.87463C20.201 3.29996 20.8914 3.01463 21.2862 3.42929C22.0013 4.18031 22.9843 5.21291 23.9625 6.24052C24.9364 7.26354 25.9055 8.2816 26.601 9.01196C26.9865 9.41596 26.704 10.0866 26.1482 10.088Z" fill="#49B51F"/>
</svg>
