<svg width="32" height="32" viewBox="0 0 32 32" fill="none" xmlns="http://www.w3.org/2000/svg">
<path d="M19.2244 7.32C18.5897 7.20275 18.0067 7.60781 17.8859 8.22738C17.7651 8.84696 18.1714 9.45187 18.7889 9.57312C20.6479 9.93554 22.0833 11.3746 22.4471 13.2399V13.2413C22.5507 13.7782 23.0234 14.1686 23.5679 14.1686C23.6409 14.1686 23.7139 14.162 23.7883 14.1486C24.4057 14.0247 24.8121 13.4211 24.6912 12.8002C24.1481 10.0142 22.0036 7.8623 19.2244 7.32Z" fill="#49B51F"/>
<path d="M19.1415 2.67732C18.844 2.63468 18.5452 2.72262 18.3076 2.91183C18.0632 3.10369 17.9105 3.38084 17.8773 3.69129C17.807 4.31886 18.2598 4.88647 18.8865 4.95709C23.2087 5.43942 26.5682 8.80645 27.0542 13.1421C27.1193 13.7231 27.6066 14.1614 28.1882 14.1614C28.232 14.1614 28.2745 14.1588 28.3184 14.1534C28.6224 14.1201 28.8933 13.9696 29.0845 13.7297C29.2744 13.4899 29.3607 13.1914 29.3262 12.8863C28.7207 7.47669 24.5339 3.27824 19.1415 2.67732Z" fill="#49B51F"/>
<path fill-rule="evenodd" clip-rule="evenodd" d="M14.7089 17.2965C20.0277 22.6138 21.2343 16.4623 24.6208 19.8464C27.8857 23.1103 29.7621 23.7643 25.6256 27.8996C25.1075 28.316 21.8154 33.3257 10.2461 21.7596C-1.32468 10.192 3.68207 6.89659 4.09859 6.3786C8.24511 2.23179 8.88778 4.11918 12.1526 7.38311C15.5391 10.7687 9.39017 11.9792 14.7089 17.2965Z" fill="#49B51F"/>
</svg>
