<svg width="21" height="20" viewBox="0 0 21 20" fill="none" xmlns="http://www.w3.org/2000/svg">
<g id="Category">
<path id="Stroke 1" fill-rule="evenodd" clip-rule="evenodd" d="M1.6001 4.5C1.6001 1.87479 1.62821 1 5.1001 1C8.57199 1 8.6001 1.87479 8.6001 4.5C8.6001 7.12521 8.61117 8 5.1001 8C1.58902 8 1.6001 7.12521 1.6001 4.5Z" stroke="black" stroke-opacity="0.5" stroke-width="1.5" stroke-linecap="round" stroke-linejoin="round"/>
<path id="Stroke 3" fill-rule="evenodd" clip-rule="evenodd" d="M12.6001 4.5C12.6001 1.87479 12.6282 1 16.1001 1C19.572 1 19.6001 1.87479 19.6001 4.5C19.6001 7.12521 19.6112 8 16.1001 8C12.589 8 12.6001 7.12521 12.6001 4.5Z" stroke="black" stroke-opacity="0.5" stroke-width="1.5" stroke-linecap="round" stroke-linejoin="round"/>
<path id="Stroke 5" fill-rule="evenodd" clip-rule="evenodd" d="M1.6001 15.5C1.6001 12.8748 1.62821 12 5.1001 12C8.57199 12 8.6001 12.8748 8.6001 15.5C8.6001 18.1252 8.61117 19 5.1001 19C1.58902 19 1.6001 18.1252 1.6001 15.5Z" stroke="black" stroke-opacity="0.5" stroke-width="1.5" stroke-linecap="round" stroke-linejoin="round"/>
<path id="Stroke 7" fill-rule="evenodd" clip-rule="evenodd" d="M12.6001 15.5C12.6001 12.8748 12.6282 12 16.1001 12C19.572 12 19.6001 12.8748 19.6001 15.5C19.6001 18.1252 19.6112 19 16.1001 19C12.589 19 12.6001 18.1252 12.6001 15.5Z" stroke="black" stroke-opacity="0.5" stroke-width="1.5" stroke-linecap="round" stroke-linejoin="round"/>
</g>
</svg>
