<svg width="18" height="17" viewBox="0 0 18 17" fill="none" xmlns="http://www.w3.org/2000/svg">
<g id="Tick Square">
<path id="Tick Square_2" fill-rule="evenodd" clip-rule="evenodd" d="M5.39175 0.166504H12.6167C15.4417 0.166504 17.3334 2.14984 17.3334 5.09984V11.909C17.3334 14.8498 15.4417 16.8332 12.6167 16.8332H5.39175C2.56675 16.8332 0.666748 14.8498 0.666748 11.909V5.09984C0.666748 2.14984 2.56675 0.166504 5.39175 0.166504ZM8.52508 10.9915L12.4834 7.03317C12.7667 6.74984 12.7667 6.2915 12.4834 5.99984C12.2001 5.7165 11.7334 5.7165 11.4501 5.99984L8.00841 9.4415L6.55008 7.98317C6.26675 7.69984 5.80008 7.69984 5.51675 7.98317C5.23341 8.2665 5.23341 8.72484 5.51675 9.0165L7.50008 10.9915C7.64175 11.1332 7.82508 11.1998 8.00841 11.1998C8.20008 11.1998 8.38341 11.1332 8.52508 10.9915Z" fill="#49B51F"/>
</g>
</svg>
