<svg width="25" height="24" viewBox="0 0 25 24" fill="none" xmlns="http://www.w3.org/2000/svg">
<path d="M5.39489 7.056C5.39489 5.807 6.40689 4.795 7.65589 4.794H8.68489C9.28189 4.794 9.85389 4.557 10.2779 4.137L10.9969 3.417C11.8779 2.531 13.3099 2.527 14.1959 3.408L14.1969 3.409L14.2059 3.417L14.9259 4.137C15.3499 4.558 15.9219 4.794 16.5189 4.794H17.5469C18.7959 4.794 19.8089 5.806 19.8089 7.056V8.083C19.8089 8.68 20.0449 9.253 20.4659 9.677L21.1859 10.397C22.0719 11.278 22.0769 12.71 21.1959 13.596L21.1949 13.597L21.1859 13.606L20.4659 14.326C20.0449 14.749 19.8089 15.321 19.8089 15.918V16.947C19.8089 18.196 18.7969 19.208 17.5479 19.208H17.5469H16.5169C15.9199 19.208 15.3469 19.445 14.9239 19.866L14.2039 20.585C13.3239 21.471 11.8929 21.476 11.0069 20.597C11.0059 20.596 11.0049 20.595 11.0039 20.594L10.9949 20.585L10.2759 19.866C9.85289 19.445 9.27989 19.209 8.68289 19.208H7.65589C6.40689 19.208 5.39489 18.196 5.39489 16.947V15.916C5.39489 15.319 5.15789 14.747 4.73689 14.324L4.01789 13.604C3.13189 12.724 3.12689 11.293 4.00689 10.407C4.00689 10.406 4.00789 10.405 4.00889 10.404L4.01789 10.395L4.73689 9.675C5.15789 9.251 5.39489 8.679 5.39489 8.081V7.056" stroke="black" stroke-opacity="0.5" stroke-width="1.5" stroke-linecap="round" stroke-linejoin="round"/>
<path d="M10.0316 14.5717L15.1716 9.4317" stroke="black" stroke-opacity="0.5" stroke-width="1.5" stroke-linecap="round" stroke-linejoin="round"/>
<path d="M15.0955 14.5H15.1045" stroke="black" stroke-opacity="0.5" stroke-width="2" stroke-linecap="round" stroke-linejoin="round"/>
<path d="M10.0955 9.5H10.1045" stroke="black" stroke-opacity="0.5" stroke-width="2" stroke-linecap="round" stroke-linejoin="round"/>
</svg>
