<svg width="24" height="24" viewBox="0 0 24 24" fill="none" xmlns="http://www.w3.org/2000/svg">
<path d="M12.1 22.4166C17.853 22.4166 22.5167 17.7529 22.5167 11.9999C22.5167 6.24695 17.853 1.58325 12.1 1.58325C6.34705 1.58325 1.68335 6.24695 1.68335 11.9999C1.68335 17.7529 6.34705 22.4166 12.1 22.4166Z" stroke="black" stroke-opacity="0.5" stroke-width="1.5625"/>
<path d="M12.1 5.75V18.25M15.225 9.39583C15.225 7.95833 13.826 6.79167 12.1 6.79167C10.3739 6.79167 8.97498 7.95833 8.97498 9.39583C8.97498 10.8333 10.3739 12 12.1 12C13.826 12 15.225 13.1667 15.225 14.6042C15.225 16.0417 13.826 17.2083 12.1 17.2083C10.3739 17.2083 8.97498 16.0417 8.97498 14.6042" stroke="black" stroke-opacity="0.5" stroke-width="1.5625" stroke-linecap="round"/>
</svg>
