<svg width="19" height="20" viewBox="0 0 19 20" fill="none" xmlns="http://www.w3.org/2000/svg">
<g id="Filter 2">
<path id="Filter 2_2" fill-rule="evenodd" clip-rule="evenodd" d="M2.28409 0.833252H16.7157C17.7936 0.833252 18.6666 1.73255 18.6666 2.84282V4.2467C18.6666 4.7853 18.4561 5.30252 18.0824 5.67974L12.1194 11.7114C12.0166 11.8164 11.8769 11.8747 11.7325 11.8737L6.73977 11.8582C6.58782 11.8582 6.44342 11.793 6.3396 11.6793L0.859893 5.65252C0.521068 5.28016 0.333252 4.78822 0.333252 4.27781V2.84379C0.333252 1.73352 1.20627 0.833252 2.28409 0.833252ZM7.00668 13.5054L11.4567 13.519C11.7342 13.52 11.9588 13.7523 11.9588 14.0372V16.5406C11.9588 16.8265 11.7965 17.0851 11.5435 17.2047L7.50406 19.1014C7.40968 19.1452 7.30964 19.1666 7.2096 19.1666C7.07652 19.1666 6.94345 19.1277 6.82736 19.0509C6.62444 18.9167 6.50175 18.6853 6.50175 18.4374V14.0236C6.50175 13.7368 6.72826 13.5044 7.00668 13.5054Z" fill="black" fill-opacity="0.5"/>
</g>
</svg>
