<svg width="21" height="18" viewBox="0 0 21 18" fill="none" xmlns="http://www.w3.org/2000/svg">
<g id="Hide">
<path id="Stroke 1" d="M8.26069 11.3668C7.68569 10.7928 7.33569 10.0128 7.33569 9.1378C7.33569 7.3848 8.74769 5.9718 10.4997 5.9718C11.3667 5.9718 12.1647 6.3228 12.7297 6.8968" stroke="#130F26" stroke-width="1.5" stroke-linecap="round" stroke-linejoin="round"/>
<path id="Stroke 3" d="M13.6049 9.69891C13.3729 10.9889 12.3569 12.0069 11.0679 12.2409" stroke="#130F26" stroke-width="1.5" stroke-linecap="round" stroke-linejoin="round"/>
<path id="Stroke 5" d="M5.15463 14.4723C3.56763 13.2263 2.22363 11.4063 1.24963 9.13729C2.23363 6.85829 3.58663 5.02829 5.18363 3.77229C6.77063 2.51629 8.60163 1.83429 10.4996 1.83429C12.4086 1.83429 14.2386 2.52629 15.8356 3.79129" stroke="#130F26" stroke-width="1.5" stroke-linecap="round" stroke-linejoin="round"/>
<path id="Stroke 7" d="M17.9477 5.99081C18.6357 6.90481 19.2407 7.95981 19.7497 9.13681C17.7827 13.6938 14.3067 16.4388 10.4997 16.4388C9.63665 16.4388 8.78565 16.2988 7.96765 16.0258" stroke="#130F26" stroke-width="1.5" stroke-linecap="round" stroke-linejoin="round"/>
<path id="Stroke 9" d="M18.387 1.2496L2.61304 17.0236" stroke="#130F26" stroke-width="1.5" stroke-linecap="round" stroke-linejoin="round"/>
</g>
</svg>
