<svg width="20" height="20" viewBox="0 0 20 20" fill="none" xmlns="http://www.w3.org/2000/svg">
<path d="M12.5 5.83333H7.50002M12.5 9.16667H7.50002M12.5 12.5H9.16669M4.16669 2.5H15.8334V17.5L14.9734 16.7633C14.6713 16.5045 14.2866 16.3622 13.8888 16.3622C13.4909 16.3622 13.1062 16.5045 12.8042 16.7633L11.9442 17.5L11.085 16.7633C10.7829 16.5042 10.398 16.3618 10 16.3618C9.60201 16.3618 9.21714 16.5042 8.91502 16.7633L8.05585 17.5L7.19585 16.7633C6.89379 16.5045 6.50909 16.3622 6.11127 16.3622C5.71345 16.3622 5.32875 16.5045 5.02669 16.7633L4.16669 17.5V2.5Z" stroke="black" stroke-linecap="round" stroke-linejoin="round"/>
</svg>
