<svg width="21" height="21" viewBox="0 0 21 21" fill="none" xmlns="http://www.w3.org/2000/svg">
<g clip-path="url(#clip0_1_2646)">
<path d="M10.5 2.60925C13.0699 2.60925 13.3744 2.61888 14.3894 2.66525C14.9996 2.67236 15.604 2.78454 16.1761 2.99688C16.5944 3.15097 16.9726 3.39707 17.283 3.717C17.6029 4.02735 17.849 4.40563 18.0031 4.82387C18.2155 5.39599 18.3276 6.00042 18.3348 6.61062C18.3811 7.62562 18.3907 7.93012 18.3907 10.5C18.3907 13.0699 18.3811 13.3744 18.3348 14.3894C18.3276 14.9996 18.2155 15.604 18.0031 16.1761C17.8429 16.5913 17.5976 16.9683 17.283 17.283C16.9683 17.5976 16.5913 17.8429 16.1761 18.0031C15.604 18.2155 14.9996 18.3276 14.3894 18.3348C13.3744 18.3811 13.0699 18.3907 10.5 18.3907C7.93012 18.3907 7.62562 18.3811 6.61062 18.3348C6.00042 18.3276 5.39599 18.2155 4.82387 18.0031C4.40563 17.849 4.02735 17.6029 3.717 17.283C3.39707 16.9726 3.15097 16.5944 2.99688 16.1761C2.78454 15.604 2.67236 14.9996 2.66525 14.3894C2.61888 13.3744 2.60925 13.0699 2.60925 10.5C2.60925 7.93012 2.61888 7.62562 2.66525 6.61062C2.67236 6.00042 2.78454 5.39599 2.99688 4.82387C3.15097 4.40563 3.39707 4.02735 3.717 3.717C4.02735 3.39707 4.40563 3.15097 4.82387 2.99688C5.39599 2.78454 6.00042 2.67236 6.61062 2.66525C7.62562 2.61888 7.93012 2.60925 10.5 2.60925ZM10.5 0.875C7.88637 0.875 7.55825 0.886375 6.53188 0.93275C5.73351 0.949249 4.94366 1.10042 4.19563 1.37988C3.5556 1.62765 2.97448 2.00654 2.48956 2.49221C2.00464 2.97788 1.62666 3.5596 1.37988 4.2C1.10042 4.94804 0.949249 5.73789 0.93275 6.53625C0.886375 7.55825 0.875 7.88637 0.875 10.5C0.875 13.1136 0.886375 13.4417 0.93275 14.4681C0.949249 15.2665 1.10042 16.0563 1.37988 16.8044C1.62765 17.4444 2.00654 18.0255 2.49221 18.5104C2.97788 18.9954 3.5596 19.3733 4.2 19.6201C4.94804 19.8996 5.73789 20.0508 6.53625 20.0672C7.55825 20.1136 7.88637 20.125 10.5 20.125C13.1136 20.125 13.4417 20.1136 14.4681 20.0672C15.2665 20.0508 16.0563 19.8996 16.8044 19.6201C17.4444 19.3724 18.0255 18.9935 18.5104 18.5078C18.9954 18.0221 19.3733 17.4404 19.6201 16.8C19.8996 16.052 20.0508 15.2621 20.0672 14.4638C20.1136 13.4418 20.125 13.1136 20.125 10.5C20.125 7.88637 20.1136 7.55825 20.0672 6.53188C20.0508 5.73351 19.8996 4.94366 19.6201 4.19563C19.3724 3.5556 18.9935 2.97448 18.5078 2.48956C18.0221 2.00464 17.4404 1.62666 16.8 1.37988C16.052 1.10042 15.2621 0.949249 14.4638 0.93275C13.4418 0.886375 13.1136 0.875 10.5 0.875Z" fill="#35383F"/>
<path d="M10.5 5.55713C9.5224 5.55713 8.56674 5.84702 7.75389 6.39015C6.94104 6.93328 6.3075 7.70526 5.93338 8.60845C5.55927 9.51164 5.46139 10.5055 5.65211 11.4643C5.84283 12.4231 6.31359 13.3039 7.00487 13.9951C7.69614 14.6864 8.57688 15.1572 9.5357 15.3479C10.4945 15.5386 11.4884 15.4407 12.3916 15.0666C13.2948 14.6925 14.0667 14.059 14.6099 13.2461C15.153 12.4333 15.4429 11.4776 15.4429 10.5C15.4429 9.18907 14.9221 7.93183 13.9951 7.00486C13.0682 6.0779 11.8109 5.55713 10.5 5.55713ZM10.5 13.7086C9.8654 13.7086 9.24504 13.5204 8.71739 13.1679C8.18973 12.8153 7.77848 12.3142 7.53562 11.7279C7.29277 11.1416 7.22923 10.4964 7.35303 9.87403C7.47684 9.25162 7.78243 8.6799 8.23117 8.23116C8.6799 7.78243 9.25162 7.47684 9.87403 7.35303C10.4964 7.22923 11.1416 7.29277 11.7279 7.53562C12.3142 7.77847 12.8153 8.18973 13.1679 8.71739C13.5204 9.24504 13.7086 9.8654 13.7086 10.5C13.7086 11.351 13.3706 12.1671 12.7688 12.7688C12.1671 13.3706 11.351 13.7086 10.5 13.7086Z" fill="#35383F"/>
<path d="M15.638 6.51703C16.2759 6.51703 16.793 5.99992 16.793 5.36203C16.793 4.72414 16.2759 4.20703 15.638 4.20703C15.0001 4.20703 14.483 4.72414 14.483 5.36203C14.483 5.99992 15.0001 6.51703 15.638 6.51703Z" fill="#35383F"/>
</g>
<defs>
<clipPath id="clip0_1_2646">
<rect width="21" height="21" fill="white"/>
</clipPath>
</defs>
</svg>
