<svg width="20" height="20" viewBox="0 0 20 20" fill="none" xmlns="http://www.w3.org/2000/svg">
<path d="M19.4619 6.76402C19.2572 6.53601 19.0072 6.35328 18.7278 6.22754C18.4484 6.10181 18.1457 6.03584 17.8393 6.03386H12.9806V4.59157C12.9782 3.636 12.5976 2.72025 11.9219 2.04456C11.2462 1.36887 10.3305 0.98822 9.3749 0.98584C9.24093 0.986926 9.10977 1.0244 8.99545 1.09427C8.88113 1.16413 8.78795 1.26375 8.72587 1.38247L5.31845 8.1973H1.44229C1.05977 8.1973 0.69292 8.34926 0.422438 8.61974C0.151955 8.89022 0 9.25707 0 9.63959V17.5722C0 17.9547 0.151955 18.3216 0.422438 18.5921C0.69292 18.8625 1.05977 19.0145 1.44229 19.0145H16.7576C17.2838 19.0123 17.7914 18.8192 18.186 18.471C18.5806 18.1229 18.8354 17.6433 18.903 17.1215L19.9848 8.46773C20.0207 8.16301 19.9928 7.85413 19.9028 7.5608C19.8128 7.26746 19.6626 6.9961 19.4619 6.76402ZM1.44229 9.63959H5.04802V17.5722H1.44229V9.63959Z" fill="#CBCBCB"/>
</svg>
