<svg width="58" height="68" viewBox="0 0 58 68" fill="none" xmlns="http://www.w3.org/2000/svg">
<g id="Lock">
<path id="Lock_2" fill-rule="evenodd" clip-rule="evenodd" d="M47.4091 18.6532V23.7643C53.1503 25.5564 57.3334 30.7536 57.3334 36.9612V53.4175C57.3334 61.1024 50.9622 67.3332 43.1074 67.3332H14.896C7.03788 67.3332 0.666687 61.1024 0.666687 53.4175V36.9612C0.666687 30.7536 4.85318 25.5564 10.591 23.7643V18.6532C10.6248 8.71579 18.8556 0.666504 28.9492 0.666504C39.1783 0.666504 47.4091 8.71579 47.4091 18.6532ZM29.017 6.46332C35.8928 6.46332 41.4816 11.9289 41.4816 18.6532V23.0455H16.5184V18.5869C16.5523 11.8958 22.1411 6.46332 29.017 6.46332ZM31.9638 48.8496C31.9638 50.4727 30.6428 51.7646 28.9831 51.7646C27.3573 51.7646 26.0363 50.4727 26.0363 48.8496V41.4959C26.0363 39.906 27.3573 38.6141 28.9831 38.6141C30.6428 38.6141 31.9638 39.906 31.9638 41.4959V48.8496Z" fill="#130F26"/>
</g>
</svg>
