<svg width="40" height="25" viewBox="0 0 40 25" fill="none" xmlns="http://www.w3.org/2000/svg">
<path d="M15 12.5C15 8.41417 16.9692 4.7975 20 2.51667C17.9092 0.943334 15.3183 0 12.5 0C5.59667 0 0 5.59667 0 12.5C0 19.4033 5.59667 25 12.5 25C15.3183 25 17.9092 24.0558 20 22.4833C16.9692 20.2017 15 16.5858 15 12.5Z" fill="#F44336"/>
<path d="M27.5 0C24.6817 0 22.0908 0.943334 20 2.51667C23.0308 4.7975 25 8.41417 25 12.5C25 16.5858 23.0308 20.2017 20 22.4833C22.0908 24.0567 24.6817 25 27.5 25C34.4033 25 40 19.4033 40 12.5C40 5.59667 34.4033 0 27.5 0Z" fill="#FF9800"/>
<path d="M19.9998 22.4852C22.7612 22.4852 24.9998 18.0155 24.9998 12.5019C24.9998 6.98825 22.7612 2.51855 19.9998 2.51855C17.2383 2.51855 14.9998 6.98825 14.9998 12.5019C14.9998 18.0155 17.2383 22.4852 19.9998 22.4852Z" fill="#FF7300"/>
</svg>
