<svg width="20" height="20" viewBox="0 0 20 20" fill="none" xmlns="http://www.w3.org/2000/svg">
<path d="M10.0011 2.88249e-08C8.26429 -0.00013182 6.55742 0.45206 5.0485 1.31205C3.53959 2.17205 2.28067 3.41019 1.39568 4.90458C0.510688 6.39897 0.0301488 8.09808 0.00137302 9.83462C-0.0274028 11.5712 0.396576 13.2853 1.23157 14.8082L0.414234 17.6832C0.337364 17.9478 0.332484 18.2281 0.400097 18.4951C0.46771 18.7622 0.605367 19.0064 0.798861 19.2025C0.992343 19.3969 1.23485 19.5353 1.50064 19.6031C1.76643 19.6708 2.0456 19.6653 2.30852 19.5872L5.19323 18.7698C6.53008 19.5025 8.01676 19.9199 9.53963 19.99C11.0625 20.0602 12.5812 19.7812 13.9798 19.1745C15.3783 18.5677 16.6196 17.6493 17.6088 16.4893C18.598 15.3293 19.309 13.9586 19.6872 12.4818C20.0655 11.005 20.1012 9.46121 19.7914 7.96852C19.4817 6.47583 18.8348 5.07372 17.9002 3.86934C16.9655 2.66496 15.7679 1.69021 14.3989 1.01958C13.0298 0.348958 11.5256 0.000211168 10.0011 2.88249e-08ZM5.38554 11.1542C5.15733 11.1542 4.93424 11.0865 4.74448 10.9597C4.55473 10.8329 4.40683 10.6527 4.3195 10.4419C4.23216 10.231 4.20931 9.99903 4.25383 9.7752C4.29836 9.55137 4.40825 9.34577 4.56963 9.18439C4.731 9.02302 4.9366 8.91312 5.16043 8.8686C5.38426 8.82408 5.61627 8.84693 5.82712 8.93426C6.03796 9.0216 6.21817 9.1695 6.34496 9.35925C6.47175 9.549 6.53942 9.7721 6.53942 10.0003C6.53942 10.3063 6.41786 10.5998 6.20146 10.8162C5.98507 11.0326 5.69157 11.1542 5.38554 11.1542ZM10.0011 11.1542C9.77286 11.1542 9.54976 11.0865 9.36001 10.9597C9.17025 10.8329 9.02236 10.6527 8.93502 10.4419C8.84769 10.231 8.82484 9.99903 8.86936 9.7752C8.91388 9.55137 9.02378 9.34577 9.18515 9.18439C9.34653 9.02302 9.55213 8.91312 9.77596 8.8686C9.99979 8.82408 10.2318 8.84693 10.4426 8.93426C10.6535 9.0216 10.8337 9.1695 10.9605 9.35925C11.0873 9.549 11.155 9.7721 11.155 10.0003C11.155 10.3063 11.0334 10.5998 10.817 10.8162C10.6006 11.0326 10.3071 11.1542 10.0011 11.1542ZM14.6166 11.1542C14.3884 11.1542 14.1653 11.0865 13.9755 10.9597C13.7858 10.8329 13.6379 10.6527 13.5506 10.4419C13.4632 10.231 13.4404 9.99903 13.4849 9.7752C13.5294 9.55137 13.6393 9.34577 13.8007 9.18439C13.9621 9.02302 14.1677 8.91312 14.3915 8.8686C14.6153 8.82408 14.8473 8.84693 15.0582 8.93426C15.269 9.0216 15.4492 9.1695 15.576 9.35925C15.7028 9.549 15.7705 9.7721 15.7705 10.0003C15.7705 10.3063 15.6489 10.5998 15.4325 10.8162C15.2161 11.0326 14.9226 11.1542 14.6166 11.1542Z" fill="#CBCBCB"/>
</svg>
