<svg width="16" height="19" viewBox="0 0 16 19" fill="none" xmlns="http://www.w3.org/2000/svg">
<path fill-rule="evenodd" clip-rule="evenodd" d="M6.27703 1.70825C6.27703 1.50105 6.35934 1.30234 6.50586 1.15582C6.65237 1.00931 6.85108 0.927002 7.05828 0.927002H12.4041C15.2697 0.927002 16.3593 4.66971 13.9416 6.20825L3.09787 13.1093C1.99787 13.8093 2.4937 15.5103 3.79578 15.5103H7.25516L7.02599 15.2812C6.95141 15.2091 6.89193 15.1228 6.85103 15.0275C6.81014 14.9322 6.78863 14.8296 6.78778 14.7259C6.78693 14.6222 6.80674 14.5193 6.84607 14.4233C6.8854 14.3273 6.94345 14.2401 7.01684 14.1668C7.09023 14.0935 7.17748 14.0355 7.27351 13.9963C7.36954 13.957 7.47243 13.9373 7.57616 13.9383C7.67989 13.9392 7.7824 13.9608 7.87769 14.0018C7.97299 14.0428 8.05917 14.1024 8.1312 14.177L9.6937 15.7395C9.84 15.886 9.92218 16.0846 9.92218 16.2916C9.92218 16.4986 9.84 16.6972 9.6937 16.8437L8.1312 18.4062C8.05968 18.4829 7.97343 18.5445 7.87759 18.5872C7.78176 18.6299 7.67831 18.6528 7.57341 18.6547C7.46851 18.6566 7.36432 18.6373 7.26704 18.598C7.16976 18.5587 7.08139 18.5002 7.0072 18.426C6.93302 18.3518 6.87453 18.2634 6.83524 18.1662C6.79595 18.0689 6.77665 17.9647 6.7785 17.8598C6.78035 17.7549 6.80331 17.6514 6.84601 17.5556C6.88871 17.4598 6.95028 17.3735 7.02703 17.302L7.2562 17.0728H3.79474C0.929117 17.0728 -0.160466 13.3301 2.25724 11.7916L13.102 4.89054C14.201 4.19054 13.7062 2.4895 12.4031 2.4895H7.05828C6.85108 2.4895 6.65237 2.40719 6.50586 2.26068C6.35934 2.11417 6.27703 1.91545 6.27703 1.70825Z" fill="black" fill-opacity="0.5"/>
</svg>
