<svg width="32" height="32" viewBox="0 0 32 32" fill="none" xmlns="http://www.w3.org/2000/svg">
<path d="M23.8914 19.0935C23.5461 19.4281 23.3874 19.9121 23.4661 20.3868L24.6514 26.9468C24.7514 27.5028 24.5168 28.0655 24.0514 28.3868C23.5954 28.7201 22.9888 28.7601 22.4914 28.4935L16.5861 25.4135C16.3808 25.3041 16.1528 25.2455 15.9194 25.2388H15.5581C15.4328 25.2575 15.3101 25.2975 15.1981 25.3588L9.29143 28.4535C8.99943 28.6001 8.66876 28.6521 8.34476 28.6001C7.55543 28.4508 7.02876 27.6988 7.15809 26.9055L8.34476 20.3455C8.42343 19.8668 8.26476 19.3801 7.91943 19.0401L3.10476 14.3735C2.70209 13.9828 2.56209 13.3961 2.74609 12.8668C2.92476 12.3388 3.38076 11.9535 3.93143 11.8668L10.5581 10.9055C11.0621 10.8535 11.5048 10.5468 11.7314 10.0935L14.6514 4.1068C14.7208 3.97347 14.8101 3.8508 14.9181 3.7468L15.0381 3.65347C15.1008 3.58413 15.1728 3.5268 15.2528 3.48013L15.3981 3.4268L15.6248 3.33347H16.1861C16.6874 3.38547 17.1288 3.68547 17.3594 4.13347L20.3181 10.0935C20.5314 10.5295 20.9461 10.8321 21.4248 10.9055L28.0514 11.8668C28.6114 11.9468 29.0794 12.3335 29.2648 12.8668C29.4394 13.4015 29.2888 13.9881 28.8781 14.3735L23.8914 19.0935Z" fill="#49B51F"/>
</svg>
