<svg width="20" height="20" viewBox="0 0 20 20" fill="none" xmlns="http://www.w3.org/2000/svg">
<path fill-rule="evenodd" clip-rule="evenodd" d="M8.27906 0L8.27906 5.98849L10.0128 5.41057C10.1668 5.35926 10.3332 5.35926 10.4872 5.41057L12.2209 5.98849L12.2209 0H8.27906ZM6.77906 0L6.77906 7.02906C6.77906 7.27014 6.89495 7.49653 7.09053 7.63749C7.28611 7.77846 7.53752 7.81681 7.76623 7.74057L10.25 6.91265L12.7338 7.74057C12.9625 7.81681 13.2139 7.77846 13.4095 7.63749C13.605 7.49653 13.7209 7.27014 13.7209 7.02906L13.7209 0H14.7849C17.6651 0 20 2.33489 20 5.21512V14.2849C20 17.1651 17.6651 19.5 14.7849 19.5H5.71512C2.83489 19.5 0.5 17.1651 0.5 14.2849V5.21512C0.5 2.33489 2.83489 0 5.71512 0H6.77906ZM12.814 14.2849C12.814 14.6991 12.4782 15.0349 12.064 15.0349H8.43605C8.02184 15.0349 7.68605 14.6991 7.68605 14.2849C7.68605 13.8707 8.02184 13.5349 8.43605 13.5349H12.064C12.4782 13.5349 12.814 13.8707 12.814 14.2849Z" fill="#979797"/>
</svg>
