<svg width="97" height="97" viewBox="0 0 97 97" fill="none" xmlns="http://www.w3.org/2000/svg">
<g id="ooui:success" clip-path="url(#clip0_1_3008)">
<path id="Vector" d="M48.5 97C35.637 97 23.3008 91.8902 14.2053 82.7947C5.10981 73.6992 0 61.363 0 48.5C0 35.637 5.10981 23.3008 14.2053 14.2053C23.3008 5.10981 35.637 0 48.5 0C61.363 0 73.6992 5.10981 82.7947 14.2053C91.8902 23.3008 97 35.637 97 48.5C97 61.363 91.8902 73.6992 82.7947 82.7947C73.6992 91.8902 61.363 97 48.5 97ZM38.8 72.75L82.45 31.525L75.175 24.25L38.8 58.2L21.825 41.225L14.55 48.5L38.8 72.75Z" fill="#49B51F"/>
</g>
<defs>
<clipPath id="clip0_1_3008">
<rect width="97" height="97" fill="white"/>
</clipPath>
</defs>
</svg>
