<svg width="5" height="18" viewBox="0 0 5 18" fill="none" xmlns="http://www.w3.org/2000/svg">
<path id="Vector" d="M2.04 6.87556C0.918 6.87556 0 7.75956 0 8.84C0 9.92045 0.918 10.8044 2.04 10.8044C3.162 10.8044 4.08 9.92045 4.08 8.84C4.08 7.75956 3.162 6.87556 2.04 6.87556ZM2.04 3.92889C3.162 3.92889 4.08 3.04489 4.08 1.96444C4.08 0.884 3.162 0 2.04 0C0.918 0 0 0.884 0 1.96444C0 3.04489 0.918 3.92889 2.04 3.92889ZM2.04 13.7511C0.918 13.7511 0 14.6351 0 15.7156C0 16.796 0.918 17.68 2.04 17.68C3.162 17.68 4.08 16.796 4.08 15.7156C4.08 14.6351 3.162 13.7511 2.04 13.7511Z" fill="black"/>
</svg>
