<svg width="21" height="21" viewBox="0 0 21 21" fill="none" xmlns="http://www.w3.org/2000/svg">
<path d="M21 4.0252C20.2125 4.3752 19.425 4.6377 18.55 4.7252C19.425 4.2002 20.125 3.3252 20.475 2.3627C19.6 2.8877 18.725 3.2377 17.7625 3.4127C16.975 2.5377 15.8375 2.0127 14.6125 2.0127C12.25 2.0127 10.325 3.93769 10.325 6.30019C10.325 6.65019 10.325 7.0002 10.4125 7.26269C6.7375 7.0877 3.5875 5.3377 1.4875 2.7127C1.05 3.4127 0.875 4.1127 0.875 4.9002C0.875 6.38769 1.6625 7.70019 2.8 8.48769C2.1 8.48769 1.4 8.3127 0.875 7.9627C0.875 7.9627 0.875 7.96269 0.875 8.05019C0.875 10.1502 2.3625 11.9002 4.2875 12.2502C3.9375 12.3377 3.5875 12.4252 3.15 12.4252C2.8875 12.4252 2.625 12.4252 2.3625 12.3377C2.8875 14.0877 4.4625 15.3127 6.3875 15.3127C4.9 16.4502 3.0625 17.1502 1.05 17.1502C0.7 17.1502 0.35 17.1502 0 17.0627C1.925 18.2877 4.2 18.9877 6.5625 18.9877C14.525 18.9877 18.8125 12.4252 18.8125 6.73769C18.8125 6.56269 18.8125 6.3877 18.8125 6.2127C19.6875 5.6002 20.3875 4.8127 21 4.0252Z" fill="#35383F"/>
</svg>
