<svg width="23" height="18" viewBox="0 0 23 18" fill="none" xmlns="http://www.w3.org/2000/svg">
<g id="3 User">
<path id="Stroke 1" d="M17.4878 7.89673C18.8828 7.70073 19.9568 6.50473 19.9598 5.05573C19.9598 3.62773 18.9188 2.44373 17.5538 2.21973" stroke="black" stroke-opacity="0.5" stroke-width="1.5" stroke-linecap="round" stroke-linejoin="round"/>
<path id="Stroke 3" d="M19.3286 11.2505C20.6796 11.4525 21.6226 11.9255 21.6226 12.9005C21.6226 13.5715 21.1786 14.0075 20.4606 14.2815" stroke="black" stroke-opacity="0.5" stroke-width="1.5" stroke-linecap="round" stroke-linejoin="round"/>
<path id="Stroke 5" fill-rule="evenodd" clip-rule="evenodd" d="M11.4868 11.6641C8.27283 11.6641 5.52783 12.1511 5.52783 14.0961C5.52783 16.0401 8.25583 16.5411 11.4868 16.5411C14.7008 16.5411 17.4448 16.0591 17.4448 14.1131C17.4448 12.1671 14.7178 11.6641 11.4868 11.6641Z" stroke="black" stroke-opacity="0.5" stroke-width="1.5" stroke-linecap="round" stroke-linejoin="round"/>
<path id="Stroke 7" fill-rule="evenodd" clip-rule="evenodd" d="M11.487 8.888C13.596 8.888 15.306 7.179 15.306 5.069C15.306 2.96 13.596 1.25 11.487 1.25C9.378 1.25 7.668 2.96 7.668 5.069C7.66 7.171 9.357 8.881 11.459 8.888H11.487Z" stroke="black" stroke-opacity="0.5" stroke-width="1.5" stroke-linecap="round" stroke-linejoin="round"/>
<path id="Stroke 9" d="M5.48494 7.89673C4.08894 7.70073 3.01594 6.50473 3.01294 5.05573C3.01294 3.62773 4.05394 2.44373 5.41894 2.21973" stroke="black" stroke-opacity="0.5" stroke-width="1.5" stroke-linecap="round" stroke-linejoin="round"/>
<path id="Stroke 11" d="M3.6441 11.2505C2.2931 11.4525 1.3501 11.9255 1.3501 12.9005C1.3501 13.5715 1.7941 14.0075 2.5121 14.2815" stroke="black" stroke-opacity="0.5" stroke-width="1.5" stroke-linecap="round" stroke-linejoin="round"/>
</g>
</svg>
